TITLE ""
FILE "1Q_t_0739-0748.mp3" MP3
  TRACK 01 AUDIO
    TITLE "1Q_t_0739-0748_01"
    INDEX 01 00:00:00
  TRACK 02 AUDIO
    TITLE "1Q_t_0739-0748_02"
    INDEX 01 00:00:69
  TRACK 03 AUDIO
    TITLE "1Q_t_0739-0748_03"
    INDEX 01 00:01:04
  TRACK 04 AUDIO
    TITLE "1Q_t_0739-0748_04"
    INDEX 01 00:02:11
  TRACK 05 AUDIO
    TITLE "1Q_t_0739-0748_05"
    INDEX 01 00:02:19
  TRACK 06 AUDIO
    TITLE "1Q_t_0739-0748_06"
    INDEX 01 00:07:18
  TRACK 07 AUDIO
    TITLE "1Q_t_0739-0748_07"
    INDEX 01 00:07:65
  TRACK 08 AUDIO
    TITLE "1Q_t_0739-0748_08"
    INDEX 01 00:08:73
  TRACK 09 AUDIO
    TITLE "1Q_t_0739-0748_09"
    INDEX 01 00:09:05
  TRACK 10 AUDIO
    TITLE "1Q_t_0739-0748_10"
    INDEX 01 00:11:18
  TRACK 11 AUDIO
    TITLE "1Q_t_0739-0748_11"
    INDEX 01 00:11:26
  TRACK 12 AUDIO
    TITLE "1Q_t_0739-0748_12"
    INDEX 01 00:17:46
  TRACK 13 AUDIO
    TITLE "1Q_t_0739-0748_13"
    INDEX 01 00:18:16
  TRACK 14 AUDIO
    TITLE "1Q_t_0739-0748_14"
    INDEX 01 00:19:19
  TRACK 15 AUDIO
    TITLE "1Q_t_0739-0748_15"
    INDEX 01 00:19:29
  TRACK 16 AUDIO
    TITLE "1Q_t_0739-0748_16"
    INDEX 01 00:21:24
  TRACK 17 AUDIO
    TITLE "1Q_t_0739-0748_17"
    INDEX 01 00:21:32
  TRACK 18 AUDIO
    TITLE "1Q_t_0739-0748_18"
    INDEX 01 00:27:44
  TRACK 19 AUDIO
    TITLE "1Q_t_0739-0748_19"
    INDEX 01 00:28:14
  TRACK 20 AUDIO
    TITLE "1Q_t_0739-0748_20"
    INDEX 01 00:29:37
  TRACK 21 AUDIO
    TITLE "1Q_t_0739-0748_21"
    INDEX 01 00:29:47
  TRACK 22 AUDIO
    TITLE "1Q_t_0739-0748_22"
    INDEX 01 00:32:38
  TRACK 23 AUDIO
    TITLE "1Q_t_0739-0748_23"
    INDEX 01 00:32:44
  TRACK 24 AUDIO
    TITLE "1Q_t_0739-0748_24"
    INDEX 01 00:38:27
  TRACK 25 AUDIO
    TITLE "1Q_t_0739-0748_25"
    INDEX 01 00:38:72
  TRACK 26 AUDIO
    TITLE "1Q_t_0739-0748_26"
    INDEX 01 00:40:10
  TRACK 27 AUDIO
    TITLE "1Q_t_0739-0748_27"
    INDEX 01 00:40:20
  TRACK 28 AUDIO
    TITLE "1Q_t_0739-0748_28"
    INDEX 01 00:41:25
  TRACK 29 AUDIO
    TITLE "1Q_t_0739-0748_29"
    INDEX 01 00:41:33
  TRACK 30 AUDIO
    TITLE "1Q_t_0739-0748_30"
    INDEX 01 00:46:52
  TRACK 31 AUDIO
    TITLE "1Q_t_0739-0748_31"
    INDEX 01 00:47:22
  TRACK 32 AUDIO
    TITLE "1Q_t_0739-0748_32"
    INDEX 01 00:48:37
  TRACK 33 AUDIO
    TITLE "1Q_t_0739-0748_33"
    INDEX 01 00:48:45
  TRACK 34 AUDIO
    TITLE "1Q_t_0739-0748_34"
    INDEX 01 00:49:58
  TRACK 35 AUDIO
    TITLE "1Q_t_0739-0748_35"
    INDEX 01 00:49:66
  TRACK 36 AUDIO
    TITLE "1Q_t_0739-0748_36"
    INDEX 01 00:54:61
  TRACK 37 AUDIO
    TITLE "1Q_t_0739-0748_37"
    INDEX 01 00:55:33
  TRACK 38 AUDIO
    TITLE "1Q_t_0739-0748_38"
    INDEX 01 00:56:42
  TRACK 39 AUDIO
    TITLE "1Q_t_0739-0748_39"
    INDEX 01 00:56:50
  TRACK 40 AUDIO
    TITLE "1Q_t_0739-0748_40"
    INDEX 01 00:58:61
  TRACK 41 AUDIO
    TITLE "1Q_t_0739-0748_41"
    INDEX 01 00:58:67
  TRACK 42 AUDIO
    TITLE "1Q_t_0739-0748_42"
    INDEX 01 01:03:32
  TRACK 43 AUDIO
    TITLE "1Q_t_0739-0748_43"
    INDEX 01 01:04:02
  TRACK 44 AUDIO
    TITLE "1Q_t_0739-0748_44"
    INDEX 01 01:05:18
  TRACK 45 AUDIO
    TITLE "1Q_t_0739-0748_45"
    INDEX 01 01:05:27
  TRACK 46 AUDIO
    TITLE "1Q_t_0739-0748_46"
    INDEX 01 01:07:42
  TRACK 47 AUDIO
    TITLE "1Q_t_0739-0748_47"
    INDEX 01 01:07:50
  TRACK 48 AUDIO
    TITLE "1Q_t_0739-0748_48"
    INDEX 01 01:13:21
  TRACK 49 AUDIO
    TITLE "1Q_t_0739-0748_49"
    INDEX 01 01:13:66
  TRACK 50 AUDIO
    TITLE "1Q_t_0739-0748_50"
    INDEX 01 01:15:08
  TRACK 51 AUDIO
    TITLE "1Q_t_0739-0748_51"
    INDEX 01 01:15:16
  TRACK 52 AUDIO
    TITLE "1Q_t_0739-0748_52"
    INDEX 01 01:16:60
  TRACK 53 AUDIO
    TITLE "1Q_t_0739-0748_53"
    INDEX 01 01:16:66
  TRACK 54 AUDIO
    TITLE "1Q_t_0739-0748_54"
    INDEX 01 01:22:47
  TRACK 55 AUDIO
    TITLE "1Q_t_0739-0748_55"
    INDEX 01 01:23:19
  TRACK 56 AUDIO
    TITLE "1Q_t_0739-0748_56"
    INDEX 01 01:24:37
  TRACK 57 AUDIO
    TITLE "1Q_t_0739-0748_57"
    INDEX 01 01:24:42
  TRACK 58 AUDIO
    TITLE "1Q_t_0739-0748_58"
    INDEX 01 01:25:48
  TRACK 59 AUDIO
    TITLE "1Q_t_0739-0748_59"
    INDEX 01 01:25:54
  TRACK 60 AUDIO
    TITLE "1Q_t_0739-0748_60"
    INDEX 01 01:31:13
